<svg xmlns="http://www.w3.org/2000/svg" xmlns:xlink="http://www.w3.org/1999/xlink" viewBox="0 0 1465.59 506.85"><defs><style>.cls-1{fill:url(#linear-gradient);}.cls-2{fill:url(#linear-gradient-2);}.cls-3{opacity:0.2;}.cls-4{fill:#fff;}</style><linearGradient id="linear-gradient" y1="168.89" x2="226.44" y2="168.89" gradientUnits="userSpaceOnUse"><stop offset="0" stop-color="#00e8fe"/><stop offset="1" stop-color="#1990ff"/></linearGradient><linearGradient id="linear-gradient-2" x1="100.08" y1="337.96" x2="326.52" y2="337.96" gradientUnits="userSpaceOnUse"><stop offset="0" stop-color="#1990ff"/><stop offset="1" stop-color="#0123cb"/></linearGradient></defs><title>logoAsset 5</title><g id="Layer_2" data-name="Layer 2"><g id="Layer_1-2" data-name="Layer 1"><path class="cls-1" d="M141.7,337.78C42.79,312.49-18.42,217.78,5,126.23S127.54-19,226.44,6.25Z"/><path class="cls-2" d="M184.82,169.07c98.91,25.29,160.12,120,136.71,211.55S199,525.88,100.08,500.6Z"/><path class="cls-3" d="M141.7,337.78l43.12-168.71A194.7,194.7,0,0,1,277.72,223"/><path class="cls-4" d="M644.8,236.66a20.14,20.14,0,0,1-6.43,6.81,16.76,16.76,0,0,1-8.69,2,27.69,27.69,0,0,1-11.09-2.4l-12-5.17a131,131,0,0,0-14.49-5.17,65,65,0,0,0-18.41-2.39q-14.87,0-22.81,5.67A18.3,18.3,0,0,0,543,251.79a15.78,15.78,0,0,0,5.17,12.1,47.19,47.19,0,0,0,13.74,8.44,187,187,0,0,0,19.41,6.93q10.83,3.28,22.18,7.31A199.9,199.9,0,0,1,625.64,296a82.53,82.53,0,0,1,19.41,13.36,59.44,59.44,0,0,1,13.74,19.28Q664,340,664,355.9a89.49,89.49,0,0,1-7.06,35.8,76,76,0,0,1-21,28.23q-14,11.85-34.53,18.4t-47.27,6.55a143.86,143.86,0,0,1-26.72-2.52,183.16,183.16,0,0,1-25.84-6.8,140.54,140.54,0,0,1-23.06-10.21,100.32,100.32,0,0,1-18.15-12.73l18.15-28.74a23.12,23.12,0,0,1,7.68-7.94q4.67-2.9,12-2.9a24.58,24.58,0,0,1,12.22,3q5.43,3,11.73,6.55a96.19,96.19,0,0,0,14.74,6.55q8.44,3,21.31,3a54.11,54.11,0,0,0,15.37-1.89,27.13,27.13,0,0,0,10.09-5.17,20.3,20.3,0,0,0,7.31-15.63,17,17,0,0,0-5.3-12.86A46.23,46.23,0,0,0,571.7,348a168.77,168.77,0,0,0-19.54-6.81q-11-3.15-22.31-7.18a179.73,179.73,0,0,1-22.31-9.71A76.81,76.81,0,0,1,488,309.89a66.77,66.77,0,0,1-13.86-21.3q-5.29-12.6-5.29-30.5a79.59,79.59,0,0,1,6.42-31.64,73.58,73.58,0,0,1,19.29-26.34q12.85-11.34,32.27-18t45.37-6.69a145.9,145.9,0,0,1,27.35,2.53,140,140,0,0,1,24.83,7,119.3,119.3,0,0,1,21.18,10.72,102.51,102.51,0,0,1,16.89,13.48Z"/><path class="cls-4" d="M781.43,202.38a127,127,0,0,1,30.63-19.54q16.5-7.43,39.45-7.44,21.42,0,37.94,7.44a78.82,78.82,0,0,1,27.85,20.67A89.29,89.29,0,0,1,934.45,235a130.93,130.93,0,0,1,5.79,39.71V440.85H862.1V274.73q0-19.16-8.83-29.87t-26-10.72a54.62,54.62,0,0,0-24.07,5.42,97.08,97.08,0,0,0-21.81,14.75V440.85H703.28V63.48h78.15Z"/><path class="cls-4" d="M1078.64,107.85a41.16,41.16,0,0,1-3.79,17.52,46.13,46.13,0,0,1-10.33,14.37,50.58,50.58,0,0,1-15.25,9.83,47.48,47.48,0,0,1-18.53,3.65,44.11,44.11,0,0,1-17.9-3.65,50.47,50.47,0,0,1-14.75-9.83A45.39,45.39,0,0,1,988,125.37a42.44,42.44,0,0,1-3.65-17.52A43.92,43.92,0,0,1,988,90a46.34,46.34,0,0,1,10.08-14.62,47.33,47.33,0,0,1,14.75-9.83,45.23,45.23,0,0,1,17.9-3.53,48.7,48.7,0,0,1,18.53,3.53A47.33,47.33,0,0,1,1074.85,90,42.58,42.58,0,0,1,1078.64,107.85Zm-8.07,71.59V440.85H992.42V179.44Z"/><path class="cls-4" d="M1394,233.38V363.21q0,9.07,4.41,15t12.73,5.92a25,25,0,0,0,7.19-.88,28.56,28.56,0,0,0,5-2q2.15-1.12,4-2a10.31,10.31,0,0,1,4.42-.89,9.11,9.11,0,0,1,5.67,1.64,20.61,20.61,0,0,1,4.41,5.17l23.7,37.06a107.91,107.91,0,0,1-34,17,135.26,135.26,0,0,1-39.07,5.67q-18.66,0-32.9-5.42A63.39,63.39,0,0,1,1320.89,400a93,93,0,0,1-5-31.51V233.38h-93V440.85h-78.15V233.13l-17.14-3.53q-8.83-2-14.24-6.3t-5.42-12.6V179.94h36.8V165.07q0-22.44,7.19-40.59a85.62,85.62,0,0,1,20.67-31,93,93,0,0,1,32.89-19.92q19.41-7.05,44.12-7.06a118,118,0,0,1,34.53,4.79l-1.51,38.07a12.6,12.6,0,0,1-6.68,11,22.54,22.54,0,0,1-6.18,2.4,29.27,29.27,0,0,1-6.55.76,76.33,76.33,0,0,0-18.4,2,29.48,29.48,0,0,0-13.49,7.19,32.32,32.32,0,0,0-8.19,13.61q-2.77,8.44-2.77,21.3v12.35h100.07L1336,115.66q3-12.1,17.15-12.1H1394v76.38h64.79v53.44Z"/></g></g></svg>
